<?xml version="1.0" encoding="iso-8859-1"?>
<!-- Generator: Adobe Illustrator 19.0.0, SVG Export Plug-In . SVG Version: 6.00 Build 0)  -->
<svg version="1.1" id="Capa_1" xmlns="http://www.w3.org/2000/svg" xmlns:xlink="http://www.w3.org/1999/xlink" x="0px" y="0px"
	 viewBox="0 0 334.505 334.505" style="enable-background:new 0 0 334.505 334.505;" xml:space="preserve">
<path style="fill:#FFE600;" d="M208.899,91.21c-5.466-5.25-5.466-13.757,0-19.007c5.466-5.25,14.331-5.25,19.796,0l98.985,95.049
	l-98.983,95.049c-5.466,5.25-14.329,5.25-19.796,0c-5.466-5.25-5.466-13.757,0-19.014l79.186-76.035L208.899,91.21z"/>
<path style="fill:#602F75;" d="M218.8,273.036c-5.294,0.002-10.593-1.935-14.626-5.808c-4-3.838-6.2-8.96-6.2-14.423
	c0-5.466,2.2-10.595,6.193-14.437l74.066-71.117l-74.061-71.12v0.002c-4-3.838-6.2-8.962-6.2-14.426s2.2-10.59,6.2-14.428
	c8.067-7.747,21.187-7.748,29.254,0.002l98.98,95.048c1.34,1.287,2.099,3.065,2.099,4.924s-0.759,3.637-2.099,4.924l-98.987,95.049
	C229.393,271.099,224.094,273.036,218.8,273.036z M218.8,75.107c-1.886,0-3.773,0.674-5.173,2.021c-1.287,1.239-2,2.866-2,4.581
	c0,1.713,0.713,3.338,2,4.577v0.002l79.186,76.044c1.34,1.287,2.099,3.065,2.099,4.924c0,1.859-0.759,3.637-2.099,4.925
	l-79.186,76.034c-1.287,1.242-2,2.872-2,4.588c0,1.713,0.713,3.34,2,4.581c2.807,2.685,7.54,2.697,10.334,0.002l93.867-90.129
	l-93.862-90.129C222.566,75.78,220.681,75.107,218.8,75.107z"/>
<g>
	<path style="fill:#EA3457;" d="M106.501,91.21c-5.466-5.25-5.466-13.757,0-19.007c5.466-5.25,14.329-5.25,19.796,0l98.983,95.049
		l-98.983,95.049c-5.466,5.25-14.329,5.25-19.796,0c-5.466-5.25-5.466-13.757,0-19.014l79.186-76.035L106.501,91.21z"/>
	<path style="fill:#EA3457;" d="M116.4,273.035c-5.299,0-10.593-1.935-14.626-5.806c-4-3.838-6.2-8.96-6.2-14.423
		c0-5.466,2.2-10.595,6.193-14.437l74.066-71.117l-74.061-71.12v0.002c-4-3.838-6.2-8.962-6.2-14.426s2.2-10.59,6.2-14.428
		c8.067-7.747,21.187-7.745,29.254-0.002l98.98,95.051c1.34,1.287,2.099,3.065,2.099,4.924s-0.759,3.637-2.099,4.924l-98.98,95.049
		C126.993,271.099,121.701,273.035,116.4,273.035z M116.4,75.107c-1.886,0-3.773,0.674-5.173,2.021c-1.287,1.239-2,2.866-2,4.581
		c0,1.713,0.713,3.338,2,4.577v0.002l79.186,76.044c1.34,1.287,2.099,3.065,2.099,4.924c0,1.859-0.759,3.637-2.099,4.925
		l-79.186,76.034c-1.287,1.242-2,2.872-2,4.588c0,1.713,0.713,3.34,2,4.581c2.801,2.69,7.547,2.691,10.346-0.002l93.855-90.129
		l-93.853-90.127C120.173,75.78,118.287,75.107,116.4,75.107z"/>
</g>
<path style="fill:#00E7FF;" d="M10.928,91.21c-5.466-5.25-5.466-13.757,0-19.007c5.466-5.25,14.329-5.25,19.796,0l98.983,95.049
	l-98.983,95.049c-5.466,5.25-14.331,5.25-19.796,0c-5.466-5.25-5.466-13.757,0-19.014l79.186-76.035L10.928,91.21z"/>
<path style="fill:#602F75;" d="M20.82,273.031c-5.294,0.002-10.593-1.934-14.619-5.803c-4-3.838-6.2-8.96-6.2-14.423
	c0-5.466,2.2-10.595,6.193-14.437l74.066-71.117L6.199,96.132v0.002C2.2,92.295,0,87.172,0,81.707s2.2-10.59,6.2-14.428
	c8.054-7.735,21.187-7.741,29.254-0.003l98.98,95.053c1.34,1.287,2.099,3.065,2.099,4.924s-0.759,3.637-2.099,4.924l-98.98,95.049
	C31.42,271.096,26.121,273.031,20.82,273.031z M20.826,75.075c-1.874,0-3.746,0.683-5.173,2.051c-1.287,1.239-2,2.865-2,4.581
	c0,1.713,0.713,3.338,2,4.577v0.002l79.186,76.044c1.34,1.287,2.099,3.065,2.099,4.924c0,1.859-0.759,3.637-2.099,4.925
	l-79.186,76.034c-1.287,1.242-2,2.872-2,4.588c0,1.713,0.713,3.34,2,4.581c2.854,2.734,7.494,2.734,10.346-0.003l93.855-90.126
	L25.999,77.126C24.573,75.759,22.7,75.075,20.826,75.075z"/>
<g>
</g>
<g>
</g>
<g>
</g>
<g>
</g>
<g>
</g>
<g>
</g>
<g>
</g>
<g>
</g>
<g>
</g>
<g>
</g>
<g>
</g>
<g>
</g>
<g>
</g>
<g>
</g>
<g>
</g>
</svg>
